PathFileType	4	(X/Y/Z)	57_2_75_p1_0-505_filt_butterworth.trc
DataRate	CameraRate	NumFrames	NumMarkers	Units	OrigDataRate	OrigDataStartFrame	OrigNumFrames
60.0	60.0	5	27	m	60.0	126	505
Frame#	Time	RHip			RKnee			RAnkle			RBigToe			RSmallToe			RHeel			LHip			LKnee			LAnkle			LBigToe			LSmallToe			LHeel			Neck			Head			Nose			RShoulder			RElbow			RWrist			RThumb			RIndex			RPinky			LShoulder			LElbow			LWrist			LThumb			LIndex			LPinky			
		X1	Y1	Z1	X2	Y2	Z2	X3	Y3	Z3	X4	Y4	Z4	X5	Y5	Z5	X6	Y6	Z6	X7	Y7	Z7	X8	Y8	Z8	X9	Y9	Z9	X10	Y10	Z10	X11	Y11	Z11	X12	Y12	Z12	X13	Y13	Z13	X14	Y14	Z14	X15	Y15	Z15	X16	Y16	Z16	X17	Y17	Z17	X18	Y18	Z18	X19	Y19	Z19	X20	Y20	Z20	X21	Y21	Z21	X22	Y22	Z22	X23	Y23	Z23	X24	Y24	Z24	X25	Y25	Z25	X26	Y26	Z26	X27	Y27	Z27	
126	2.1	0.2466205852652941	0.6133388080445797	0.9960790134552217	0.253608913882762	0.7129898652715873	1.3636556676965466	0.24942388847307256	0.9179059374587508	1.770045013996611	0.23506770727014126	0.7081593113788995	1.8165448077911792	0.29336023151875346	0.7373742710270645	1.8089411965425697	0.24323521378437482	0.9946420277483955	1.8036146703231575	0.022621159481338603	0.6150819386529527	0.9972744339884694	0.051721586737161394	0.7281435095262304	1.3738722115332256	0.06618206731053915	0.8775034526179322	1.7569255673749702	0.08495695282293297	0.6733395993978952	1.801082443569337	0.02662967569698339	0.7460888726842788	1.816059221876309	0.08833469164337973	0.9428813703051948	1.802209970801949	0.11587757134152185	0.41868895014735485	0.451224590104877	0.07735462407128706	0.24900726554788605	0.24654367878313999	0.08883545211088657	0.23981637188878127	0.37616141022919	0.27170340103711443	0.40232256697352725	0.5202628352317172	0.31510198338870893	0.48123505675781947	0.7859281011985851	0.23087978199978726	0.4281750595832918	1.0025901770159842	0.1653373516102563	0.4254760950932506	1.0889367884369399	0.16132752912489665	0.4394978824093584	1.0933373863396014	0.17493386190900087	0.4831759824136377	1.0951020451731104	-0.0347279478011515	0.40366267461521327	0.5398455019249275	-0.03880976639693776	0.47712275836985085	0.807287780483021	0.09948500223315133	0.4764874250061659	1.0108738194921845	0.17850908315313746	0.42440483707688637	1.0574489932172841	0.18050983125440317	0.42979216563819866	1.0917748817208164	0.1467053825406359	0.4546869842888497	1.099412390642642
127	2.1166666666666667	0.24663169663626341	0.6133700015093253	0.9961827278702937	0.25160827781640527	0.70796431551264	1.361282310057254	0.24941060348814836	0.9178961623006751	1.770038609340439	0.2341465086578549	0.7044507988400092	1.8155653246711727	0.2933579689743013	0.7373520286575252	1.8089348052988892	0.24321006031396916	0.9946173093685317	1.8035751732906344	0.02263946765082316	0.6150968859350611	0.9971513618545825	0.05153828453167507	0.7280662671050537	1.3734085259438977	0.06614151217371037	0.8780457792732257	1.7580593000650158	0.084962396374034	0.6731485763003751	1.8010227685288813	0.027293009652929006	0.7463300967107915	1.8160893204038582	0.08856878931935805	0.9438400619377709	1.8022925724629968	0.11584823949072974	0.41894800083417955	0.45175600081004147	0.08059948874767586	0.24857647477756	0.24342903613861142	0.08967008228910937	0.24254682066245642	0.3755787163904792	0.2719188349649267	0.4029746782432222	0.5205362085441898	0.31515238242922916	0.48136477351989737	0.7859811842087814	0.23085774941530884	0.42816780730605597	1.0025759321301175	0.16513218330770016	0.425513358478923	1.0889268415496551	0.16122900938541973	0.43945198514786044	1.0933232367005978	0.17480466502538203	0.4845714262626768	1.0952027997920555	-0.0347573568895933	0.4035036325663552	0.5394959803603556	-0.03879013255649495	0.4770755200362653	0.8073333450955382	0.09838870031810137	0.4761139620619149	1.0105380975184082	0.17852579183533202	0.4248569296588222	1.0575110258825589	0.1803084324695764	0.42841352877606625	1.0909054856070728	0.146700261643604	0.45472337033966004	1.0993554049596392
128	2.1333333333333333	0.24665155539139522	0.6133585937659743	0.9961672915001969	0.2498222946276255	0.7054189385546118	1.3594636715552453	0.24939282416397818	0.9178529335658989	1.7700213647387828	0.23289878458883698	0.6995523709679761	1.814249743607729	0.2933631976531601	0.7373296344404139	1.808936053201312	0.24317137473557376	0.9945319282242598	1.8034773498648309	0.02280263510367331	0.6151173397619925	0.9972035327541406	0.05168520992217934	0.7277458721876648	1.372121369056809	0.06616794232009471	0.8786848950697873	1.7592420244101954	0.08499274423883318	0.6727394310933317	1.8008996339701635	0.028423811299809053	0.7466712341428194	1.8160858170963698	0.08902557197275021	0.9457739271072401	1.8024740856874626	0.11595058670261388	0.4188505787055816	0.45273804703494736	0.08406455732145303	0.24828027546917641	0.24151709893513515	0.08996496723862715	0.243637915343528	0.3753422578388753	0.27237685264644407	0.4035550437824195	0.5213092468252775	0.3151709117399773	0.4814237984414407	0.7859278385782291	0.23083784497648696	0.4281618872539197	1.0025493323836283	0.1648876016407559	0.4255611630282815	1.08892197563792	0.16111444313665665	0.4395301640749537	1.0932859782471096	0.17416363855659645	0.4856103542762956	1.0953053941088555	-0.03486074248330023	0.4030314987598066	0.5386662619720888	-0.03877209167400133	0.4770434148484751	0.8074065862469373	0.09781555161488212	0.4760664640718689	1.0095711954014284	0.17846920433098495	0.4248518643034934	1.0571946776399521	0.179968321544998	0.4285615279176237	1.089714929413806	0.14669727772024982	0.4547904003924187	1.0992798778707131
129	2.15	0.24668902395834408	0.6132416349803571	0.995736928074205	0.24854785390809972	0.7051544624880373	1.3592250805096657	0.24937341097792554	0.9178271789384425	1.7700016252938942	0.23189408663792827	0.6957735983798264	1.8131821454083008	0.2933778900191129	0.7373242264459619	1.8089531254233535	0.2431736417445564	0.9945363904215331	1.8035016067104377	0.02289988305427426	0.6151277264120851	0.9971926163665605	0.0519565729227722	0.7272921324057493	1.3703621727075623	0.06622850688730901	0.8795974507476114	1.7608747016248936	0.08506203317930061	0.6722917726187013	1.800774591326066	0.029691179789434252	0.7469479741427759	1.8160751195666627	0.08937453328533326	0.9469409143231872	1.8028860470325259	0.11644523434756869	0.41747123348053833	0.4538645491181733	0.08758128170014097	0.24788424785482	0.24066643275832672	0.08998507716710685	0.2437256728935962	0.37531809306808445	0.27323338563030886	0.4038776149878462	0.5224029803764078	0.31516054883043393	0.48149348208769516	0.785868188367316	0.2308145396952289	0.4281509005538601	1.0025197809239161	0.1649255417830505	0.42561727445148395	1.0889009334050206	0.16103450372803593	0.43969445124969553	1.0932267031193104	0.172914039268037	0.4835560312011817	1.0951790335253342	-0.03500436821924048	0.4023783045004527	0.5375959679531961	-0.03876018605280538	0.47704336201050385	0.8073797261439023	0.09760993831922316	0.47622187697100865	1.0082689760546746	0.17829778387409376	0.423559236516732	1.0561910225549942	0.1797396725279722	0.4290058166163906	1.0887840190504048	0.14662033694504367	0.4547890116898195	1.099207210131875
130	2.1666666666666665	0.24675298566116294	0.6129516734977328	0.9946572833223468	0.24808220862283625	0.7061296314138159	1.3603798486174927	0.24935048048530234	0.9178353752244848	1.7699959466030806	0.2314533252239082	0.6942001516905636	1.8126337764447609	0.29340702622620135	0.7373375961447396	1.8089683439463882	0.2433101149269179	0.9949022020873028	1.8040401052134871	0.02291198662968165	0.6151326742249664	0.9971258917925991	0.052158526369585616	0.7269559261980753	1.369093753095355	0.06628814499779204	0.8807147380425636	1.7628782386684767	0.08512598563543843	0.6727532307200068	1.8009159489289495	0.030570764624356483	0.747076519501629	1.8160890310605793	0.08948371342571344	0.9471779708568903	1.8034743087402914	0.11751670256193006	0.4141302572549616	0.4545003051129691	0.09130953108407447	0.2475863206566767	0.2401802470601253	0.08991490273593913	0.2436402079383232	0.37534156381145856	0.2743801754761006	0.4040015678126405	0.5232907859368054	0.31511361605960536	0.4815934396900289	0.7857629879615227	0.23078350266242637	0.428128387762804	1.0024945182918346	0.16565669441218847	0.42571014884215835	1.0888479776721423	0.16109816593944085	0.43987710439903527	1.093198950680132	0.1714934295432731	0.4780078523798735	1.0945911154326848	-0.035109695435071336	0.40186328708351765	0.5367832480683182	-0.03876308849411046	0.4770789310662857	0.8069663873777145	0.09758686748002432	0.4764198536280188	1.0072696010037656	0.1779566032905837	0.42015785325076294	1.0546739133421663	0.17979311165741851	0.4294125287352081	1.0884029831461413	0.14622745867215028	0.454484492943059	1.099175970763653
